HIERARCHY
ROOT hip
{
  OFFSET 0 0 0
  CHANNELS 6 Xposition Yposition Zposition Zrotation Yrotation Xrotation
  JOINT abdomen
  {
    OFFSET 0 20.6881 -0.73152
    CHANNELS 3 Zrotation Xrotation Yrotation
    JOINT chest
    {
      OFFSET 0 11.7043 -0.48768
      CHANNELS 3 Zrotation Xrotation Yrotation
      JOINT neck
      {
        OFFSET 0 22.1894 -2.19456
        CHANNELS 3 Zrotation Xrotation Yrotation
        JOINT head
        {
          OFFSET -0.24384 7.07133 1.2192
          CHANNELS 3 Zrotation Xrotation Yrotation
          JOINT leftEye
          {
            OFFSET 4.14528 8.04674 8.04672
            CHANNELS 3 Zrotation Xrotation Yrotation
            End Site
            {
              OFFSET 1 0 0
            }
          }
          JOINT rightEye
          {
            OFFSET -3.6576 8.04674 8.04672
            CHANNELS 3 Zrotation Xrotation Yrotation
            End Site
            {
              OFFSET 1 0 0
            }
          }
        }
      }
      JOINT rCollar
      {
        OFFSET -2.68224 19.2634 -4.8768
        CHANNELS 3 Zrotation Xrotation Yrotation
        JOINT rShldr
        {
          OFFSET -8.77824 -1.95073 1.46304
          CHANNELS 3 Zrotation Xrotation Yrotation
          JOINT rForeArm
          {
            OFFSET -28.1742 -1.7115 0.48768
            CHANNELS 3 Zrotation Xrotation Yrotation
            JOINT rHand
            {
              OFFSET -22.5879 0.773209 7.07136
              CHANNELS 3 Zrotation Xrotation Yrotation
              JOINT rThumb1
              {
                OFFSET -1.2192 -0.487915 3.41376
                CHANNELS 3 Zrotation Xrotation Yrotation
                JOINT rThumb2
                {
                  OFFSET -3.37035 -0.52449 3.41376
                  CHANNELS 3 Zrotation Xrotation Yrotation
                  End Site
                  {
                    OFFSET -1.78271 -1.18214 1.43049
                  }
                }
              }
              JOINT rIndex1
              {
                OFFSET -7.75947 0.938293 5.60832
                CHANNELS 3 Zrotation Xrotation Yrotation
                JOINT rIndex2
                {
                  OFFSET -2.54057 -0.884171 1.56538
                  CHANNELS 3 Zrotation Xrotation Yrotation
                  End Site
                  {
                    OFFSET -1.62519 -0.234802 1.16502
                  }
                }
              }
              JOINT rMid1
              {
                OFFSET -8.24714 1.18213 3.41376
                CHANNELS 3 Zrotation Xrotation Yrotation
                JOINT rMid2
                {
                  OFFSET -3.10165 -0.590103 1.0647
                  CHANNELS 3 Zrotation Xrotation Yrotation
                  End Site
                  {
                    OFFSET -2.48547 -0.328903 0.83742
                  }
                }
              }
              JOINT rRing1
              {
                OFFSET -8.82822 0.546677 1.51678
                CHANNELS 3 Zrotation Xrotation Yrotation
                JOINT rRing2
                {
                  OFFSET -2.60934 -0.819778 -0.0198488
                  CHANNELS 3 Zrotation Xrotation Yrotation
                  End Site
                  {
                    OFFSET -2.33842 -0.294052 0.168128
                  }
                }
              }
              JOINT rPinky1
              {
                OFFSET -8.27202 -0.0477905 -0.4584
                CHANNELS 3 Zrotation Xrotation Yrotation
                JOINT rPinky2
                {
                  OFFSET -1.82734 -0.647385 -0.700984
                  CHANNELS 3 Zrotation Xrotation Yrotation
                  End Site
                  {
                    OFFSET -1.69225 -0.51767 -0.607171
                  }
                }
              }
            }
          }
        }
      }
      JOINT lCollar
      {
        OFFSET 2.68224 19.2634 -4.8768
        CHANNELS 3 Zrotation Xrotation Yrotation
        JOINT lShldr
        {
          OFFSET 8.77824 -1.95073 1.46304
          CHANNELS 3 Zrotation Xrotation Yrotation
          JOINT lForeArm
          {
            OFFSET 28.1742 -1.7115 0.48768
            CHANNELS 3 Zrotation Xrotation Yrotation
            JOINT lHand
            {
              OFFSET 22.5879 0.773209 7.07136
              CHANNELS 3 Zrotation Xrotation Yrotation
              JOINT lThumb1
              {
                OFFSET 1.2192 -0.487915 3.41376
                CHANNELS 3 Zrotation Xrotation Yrotation
                JOINT lThumb2
                {
                  OFFSET 3.37035 -0.52449 3.41376
                  CHANNELS 3 Zrotation Xrotation Yrotation
                  End Site
                  {
                    OFFSET 1.78271 -1.18214 1.43049
                  }
                }
              }
              JOINT lIndex1
              {
                OFFSET 7.75947 0.938293 5.60832
                CHANNELS 3 Zrotation Xrotation Yrotation
                JOINT lIndex2
                {
                  OFFSET 2.54057 -0.884171 1.56538
                  CHANNELS 3 Zrotation Xrotation Yrotation
                  End Site
                  {
                    OFFSET 1.62519 -0.234802 1.16502
                  }
                }
              }
              JOINT lMid1
              {
                OFFSET 8.24714 1.18213 3.41376
                CHANNELS 3 Zrotation Xrotation Yrotation
                JOINT lMid2
                {
                  OFFSET 3.10165 -0.590103 1.0647
                  CHANNELS 3 Zrotation Xrotation Yrotation
                  End Site
                  {
                    OFFSET 2.48547 -0.328903 0.83742
                  }
                }
              }
              JOINT lRing1
              {
                OFFSET 8.82822 0.546677 1.51678
                CHANNELS 3 Zrotation Xrotation Yrotation
                JOINT lRing2
                {
                  OFFSET 2.60934 -0.819778 -0.0198488
                  CHANNELS 3 Zrotation Xrotation Yrotation
                  End Site
                  {
                    OFFSET 2.33842 -0.294052 0.168128
                  }
                }
              }
              JOINT lPinky1
              {
                OFFSET 8.27202 -0.0477905 -0.4584
                CHANNELS 3 Zrotation Xrotation Yrotation
                JOINT lPinky2
                {
                  OFFSET 1.82734 -0.647385 -0.700984
                  CHANNELS 3 Zrotation Xrotation Yrotation
                  End Site
                  {
                    OFFSET 1.69225 -0.51767 -0.607171
                  }
                }
              }
            }
          }
        }
      }
    }
  }
  JOINT rButtock
  {
    OFFSET -8.77824 4.35084 1.2192
    CHANNELS 3 Zrotation Xrotation Yrotation
    JOINT rThigh
    {
      OFFSET 0 -1.70687 -2.19456
      CHANNELS 3 Zrotation Xrotation Yrotation
      JOINT rShin
      {
        OFFSET 0 -36.8199 0.73152
        CHANNELS 3 Zrotation Xrotation Yrotation
        JOINT rFoot
        {
          OFFSET 0.73152 -45.1104 -5.12064
          CHANNELS 3 Zrotation Xrotation Yrotation
          End Site
          {
            OFFSET -1.1221 -3.69964 12.103
          }
        }
      }
    }
  }
  JOINT lButtock
  {
    OFFSET 8.77824 4.35084 1.2192
    CHANNELS 3 Zrotation Xrotation Yrotation
    JOINT lThigh
    {
      OFFSET 0 -1.70687 -2.19456
      CHANNELS 3 Zrotation Xrotation Yrotation
      JOINT lShin
      {
        OFFSET 0 -36.8199 0.73152
        CHANNELS 3 Zrotation Xrotation Yrotation
        JOINT lFoot
        {
          OFFSET -0.73152 -45.1104 -5.12064
          CHANNELS 3 Zrotation Xrotation Yrotation
          End Site
          {
            OFFSET 1.1221 -3.69964 12.103
          }
        }
      }
    }
  }
}
MOTION
Frames:	6
Frame Time:	0.00833333
2.76061 82.5677 51.1335 -8.8895 -0.7052 6.4344 4.64327 -10.6692 1.44538 -2.12185 -3.356 -0.0652987 -1.81254 13.5543 -4.46872 10.274 10.7165 -9.60832 -0.0 0.0 0.0 -0.0 0.0 0.0 1.23496e-13 -3.7056e-13 6.14811e-14 -5.24319 50.279 98.7772 -17.1179 -55.2784 120.824 -0.053191 -6.56149 -0.926263 1.82785e-09 -1.43156e-09 -8.29525e-11 3.16506e-09 -2.47156e-09 -1.33954e-10 1.82785e-09 -1.43156e-09 -8.29541e-11 7.73091 5.47488 0.417314 1.82785e-09 -1.43156e-09 -8.29517e-11 2.90554 0.965183 0.102902 1.82786e-09 -1.43156e-09 -8.29505e-11 10.2786 0.731801 0.0259123 1.82785e-09 -1.43156e-09 -8.29473e-11 2.22167 -0.733487 -0.20892 1.23338e-13 -3.7056e-13 6.12346e-14 5.47538 58.4946 -97.2414 19.609 -53.6439 -115.155 0.577572 -21.0989 3.10795 -3.38233e-10 3.18253e-11 -7.38977e-12 -5.79465e-10 5.4878e-11 -2.18495e-11 -3.38236e-10 3.18302e-11 -7.37661e-12 -7.73091 5.47488 -0.417314 -3.38234e-10 3.18303e-11 -7.39151e-12 -2.90554 0.965183 -0.102902 -3.38237e-10 3.18304e-11 -7.39064e-12 -10.2786 0.731801 -0.0259123 -3.38229e-10 3.1833e-11 -7.39481e-12 -2.22167 -0.733487 0.20892 -2.03217e-16 0.0 -3.88251e-19 4.03245 -2.64187 23.7196 0.0292734 -0.362324 0.33969 -5.08681 -5.92045 -21.8151 2.03217e-16 0.0 3.88251e-19 2.26702 -4.50433 -40.4081 0.00663103 12.2218 -0.01398 13.0694 -14.772 49.8803
2.76061 82.5657 51.1818 -8.8625 -0.7852 6.439 4.6238 -10.8403 1.23086 -1.97192 -3.36782 -0.126334 -1.95706 13.6215 -4.35729 10.2021 11.2616 -9.44177 -0.0 0.0 0.0 -0.0 0.0 0.0 1.38243e-13 -3.57815e-13 6.29153e-14 -6.39415 49.9451 99.7611 -16.9879 -55.3537 121.107 -0.054011 -6.61747 -0.934224 1.99612e-09 -1.55884e-09 -1.75373e-10 3.45722e-09 -2.69133e-09 -2.93437e-10 1.99613e-09 -1.55884e-09 -1.75373e-10 7.73091 5.47488 0.417314 1.99612e-09 -1.55884e-09 -1.75369e-10 2.90554 0.965183 0.102902 1.99614e-09 -1.55884e-09 -1.75369e-10 10.2786 0.731801 0.0259123 1.99612e-09 -1.55884e-09 -1.75366e-10 2.22167 -0.733487 -0.20892 1.38076e-13 -3.57812e-13 6.26669e-14 5.34569 58.9137 -97.1796 19.4666 -53.7484 -115.494 0.546893 -20.5374 3.01806 -4.13612e-10 2.67039e-11 -1.22547e-11 -7.09448e-10 4.60004e-11 -3.14772e-11 -4.13611e-10 2.67115e-11 -1.22451e-11 -7.73091 5.47488 -0.417314 -4.13612e-10 2.67134e-11 -1.22547e-11 -2.90554 0.965183 -0.102902 -4.13616e-10 2.67137e-11 -1.22539e-11 -10.2786 0.731801 -0.0259123 -4.1361e-10 2.67155e-11 -1.22579e-11 -2.22167 -0.733487 0.20892 -2.03217e-16 0.0 -3.88251e-19 3.9985 -2.61866 23.7169 0.0289264 -0.374161 0.341103 -5.07501 -5.91656 -21.7974 2.03217e-16 0.0 3.88251e-19 2.20284 -4.42744 -40.5191 0.00615558 12.2109 -0.00987051 13.1621 -14.8056 50.0461
2.7497 82.5661 51.228 -8.8913 -0.8539 6.4443 4.69091 -11.0125 1.26723 -1.98082 -3.34096 -0.121476 -1.97315 13.701 -4.35358 10.2534 11.7778 -9.49267 -0.0 0.0 0.0 -0.0 0.0 0.0 5.58009e-14 -2.88843e-13 5.25153e-14 -6.89181 49.8947 100.2 -16.8505 -55.4324 121.405 -0.0545355 -6.64837 -0.938628 1.51147e-09 -1.11655e-09 1.06613e-10 2.61603e-09 -1.92724e-09 1.92792e-10 1.51148e-09 -1.11655e-09 1.06613e-10 7.73091 5.47488 0.417314 1.51147e-09 -1.11655e-09 1.06617e-10 2.90554 0.965183 0.102902 1.51148e-09 -1.11655e-09 1.06616e-10 10.2786 0.731801 0.0259123 1.51147e-09 -1.11655e-09 1.0662e-10 2.22167 -0.733487 -0.20892 5.56782e-14 -2.88839e-13 5.23006e-14 5.76123 59.1961 -97.589 19.3177 -53.8563 -115.846 0.535367 -20.3162 2.98292 -6.77748e-10 6.28199e-12 2.7728e-10 -1.17331e-09 1.07625e-11 4.66898e-10 -6.77745e-10 6.29017e-12 2.77289e-10 -7.73091 5.47488 -0.417314 -6.77747e-10 6.2926e-12 2.77281e-10 -2.90554 0.965183 -0.102902 -6.77753e-10 6.2932e-12 2.77282e-10 -10.2786 0.731801 -0.0259123 -6.77746e-10 6.29387e-12 2.77277e-10 -2.22167 -0.733487 0.20892 -2.03217e-16 0.0 -3.88251e-19 4.03738 -2.60895 23.7247 0.0290901 -0.379788 0.342647 -5.06666 -5.92002 -21.7631 2.03217e-16 0.0 3.88251e-19 2.22112 -4.371 -40.6041 0.0058836 12.1984 -0.00542436 13.2816 -14.8651 50.1967
2.73117 82.5674 51.2613 -8.9643 -0.8929 6.4566 4.81422 -11.1914 1.45849 -2.08513 -3.28437 -0.0760082 -1.91328 13.7844 -4.41576 10.38 12.2907 -9.67859 -0.0 0.0 0.0 -0.0 0.0 0.0 -9.21833e-14 -1.77964e-13 3.38338e-14 -6.97347 50.0352 100.311 -16.706 -55.514 121.717 -0.0552665 -6.69053 -0.944639 5.7691e-10 -2.83874e-10 6.3895e-10 9.93931e-10 -4.88786e-10 1.11068e-09 5.76916e-10 -2.83877e-10 6.38948e-10 7.73091 5.47488 0.417314 5.76912e-10 -2.8388e-10 6.38953e-10 2.90554 0.965183 0.102902 5.7692e-10 -2.83879e-10 6.38952e-10 10.2786 0.731801 0.0259123 5.7691e-10 -2.83878e-10 6.38956e-10 2.22167 -0.733487 -0.20892 -9.22266e-14 -1.77961e-13 3.36754e-14 6.48511 59.4038 -98.2769 19.1662 -53.9647 -116.202 0.535233 -20.3148 2.98268 -1.07995e-09 -2.30801e-11 7.7064e-10 -1.88114e-09 -3.98563e-11 1.31686e-09 -1.07995e-09 -2.30725e-11 7.70648e-10 -7.73091 5.47488 -0.417314 -1.07995e-09 -2.30702e-11 7.70642e-10 -2.90554 0.965183 -0.102902 -1.07996e-09 -2.30693e-11 7.70641e-10 -10.2786 0.731801 -0.0259123 -1.07995e-09 -2.30699e-11 7.70635e-10 -2.22167 -0.733487 0.20892 -2.03217e-16 0.0 -3.88251e-19 4.11924 -2.60922 23.7373 0.0295479 -0.381745 0.344336 -5.0593 -5.92792 -21.7143 2.03217e-16 0.0 3.88251e-19 2.28721 -4.32519 -40.6787 0.00570062 12.1844 -0.000599308 13.4238 -14.9426 50.348
2.71227 82.5658 51.285 -9.0385 -0.9255 6.4845 4.93719 -11.362 1.67606 -2.19748 -3.2176 -0.0229671 -1.82694 13.8666 -4.48446 10.504 12.784 -9.8753 -0.0 0.0 0.0 -0.0 0.0 0.0 -2.37079e-13 -6.27856e-14 1.35542e-14 -6.9948 50.1785 100.344 -16.5586 -55.5961 122.033 -0.0563986 -6.75804 -0.954261 -4.06391e-10 5.8315e-10 1.1663e-09 -7.12589e-10 1.00898e-09 2.01967e-09 -4.06382e-10 5.83144e-10 1.16629e-09 7.73091 5.47488 0.417314 -4.06387e-10 5.83141e-10 1.1663e-09 2.90554 0.965183 0.102902 -4.06381e-10 5.83141e-10 1.1663e-09 10.2786 0.731801 0.0259123 -4.06391e-10 5.83144e-10 1.1663e-09 2.22167 -0.733487 -0.20892 -2.37042e-13 -6.27844e-14 1.34444e-14 7.27549 59.5386 -98.9978 19.0311 -54.0596 -116.517 0.538492 -20.3817 2.99321 -1.44753e-09 -5.16015e-11 1.24103e-09 -2.52879e-09 -8.90252e-11 2.12761e-09 -1.44753e-09 -5.15949e-11 1.24103e-09 -7.73091 5.47488 -0.417314 -1.44753e-09 -5.1593e-11 1.24103e-09 -2.90554 0.965183 -0.102902 -1.44754e-09 -5.15917e-11 1.24103e-09 -10.2786 0.731801 -0.0259123 -1.44753e-09 -5.15936e-11 1.24102e-09 -2.22167 -0.733487 0.20892 -2.03217e-16 0.0 -3.88251e-19 4.19987 -2.60885 23.7509 0.030091 -0.382547 0.346041 -5.05297 -5.93895 -21.6627 2.03217e-16 0.0 3.88251e-19 2.35384 -4.28248 -40.7438 0.00565645 12.1731 0.00453636 13.5692 -15.0254 50.4896
2.69973 82.5623 51.3098 -9.0795 -0.9702 6.5146 5.00154 -11.5094 1.79105 -2.23028 -3.16016 0.00462207 -1.76395 13.9428 -4.50025 10.5429 13.2422 -9.95748 -0.0 0.0 0.0 -0.0 0.0 0.0 -3.10255e-13 1.90831e-14 -1.63997e-15 -7.31144 50.1347 100.547 -16.4128 -55.6762 122.345 -0.0581524 -6.865 -0.969503 -1.03726e-09 1.12847e-09 1.43332e-09 -1.80703e-09 1.95103e-09 2.47918e-09 -1.03725e-09 1.12847e-09 1.43331e-09 7.73091 5.47488 0.417314 -1.03725e-09 1.12846e-09 1.43332e-09 2.90554 0.965183 0.102902 -1.03725e-09 1.12846e-09 1.43331e-09 10.2786 0.731801 0.0259123 -1.03726e-09 1.12847e-09 1.43332e-09 2.22167 -0.733487 -0.20892 -3.10173e-13 1.90837e-14 -1.73937e-15 7.88475 59.6091 -99.4989 18.9323 -54.1276 -116.747 0.53725 -20.3652 2.99046 -1.60782e-09 -6.95015e-11 1.46164e-09 -2.8121e-09 -1.19913e-10 2.50832e-09 -1.60782e-09 -6.94951e-11 1.46165e-09 -7.73091 5.47488 -0.417314 -1.60782e-09 -6.94937e-11 1.46164e-09 -2.90554 0.965183 -0.102902 -1.60783e-09 -6.94922e-11 1.46164e-09 -10.2786 0.731801 -0.0259123 -1.60782e-09 -6.94951e-11 1.46163e-09 -2.22167 -0.733487 0.20892 -2.03217e-16 0.0 -3.88251e-19 4.23503 -2.59727 23.7616 0.0305113 -0.384712 0.347631 -5.0477 -5.9518 -21.62 2.03217e-16 0.0 3.88251e-19 2.37377 -4.23545 -40.7998 0.00579919 12.169 0.00991471 13.6976 -15.1007 50.6108
